<svg width="169" height="98" viewBox="0 0 169 98" fill="none" xmlns="http://www.w3.org/2000/svg">
<path d="M15.1142 83.5L2.9702 49.66H11.9942L19.0502 70.876L26.6822 49.66H32.9222L40.2182 71.308L47.6102 49.66H56.1062L43.8662 83.5H36.8102L29.5622 63.148L22.1702 83.5H15.1142ZM58.6948 83.5V49.66H82.5988V56.476H67.1428V62.908H81.4948V69.724H67.1428V76.684H82.5988V83.5H58.6948ZM87.2192 83.5V49.66H103.539C107.187 49.66 110.003 50.46 111.987 52.06C114.003 53.628 115.011 55.74 115.011 58.396C115.011 60.156 114.563 61.692 113.667 63.004C112.803 64.316 111.587 65.292 110.019 65.932C111.907 66.508 113.363 67.484 114.387 68.86C115.411 70.204 115.923 71.884 115.923 73.9C115.923 76.876 114.851 79.228 112.707 80.956C110.595 82.652 107.699 83.5 104.019 83.5H87.2192ZM95.6672 63.1H101.955C103.555 63.1 104.723 62.812 105.459 62.236C106.227 61.66 106.611 60.78 106.611 59.596C106.611 58.412 106.227 57.548 105.459 57.004C104.723 56.428 103.555 56.14 101.955 56.14H95.6672V63.1ZM95.6672 77.02H102.819C104.451 77.02 105.635 76.716 106.371 76.108C107.139 75.468 107.523 74.524 107.523 73.276C107.523 72.028 107.139 71.1 106.371 70.492C105.635 69.884 104.451 69.58 102.819 69.58H95.6672V77.02ZM119.962 83.5V49.66H136.282C139.93 49.66 142.746 50.46 144.73 52.06C146.746 53.628 147.754 55.74 147.754 58.396C147.754 60.156 147.306 61.692 146.41 63.004C145.546 64.316 144.33 65.292 142.762 65.932C144.65 66.508 146.106 67.484 147.13 68.86C148.154 70.204 148.666 71.884 148.666 73.9C148.666 76.876 147.594 79.228 145.45 80.956C143.338 82.652 140.442 83.5 136.762 83.5H119.962ZM128.41 63.1H134.698C136.298 63.1 137.466 62.812 138.202 62.236C138.97 61.66 139.354 60.78 139.354 59.596C139.354 58.412 138.97 57.548 138.202 57.004C137.466 56.428 136.298 56.14 134.698 56.14H128.41V63.1ZM128.41 77.02H135.562C137.194 77.02 138.378 76.716 139.114 76.108C139.882 75.468 140.266 74.524 140.266 73.276C140.266 72.028 139.882 71.1 139.114 70.492C138.378 69.884 137.194 69.58 135.562 69.58H128.41V77.02Z" fill="white"/>
<path d="M3.072 48V14.16H19.344C23.184 14.16 26.144 15.104 28.224 16.992C30.336 18.848 31.392 21.44 31.392 24.768C31.392 27.296 30.752 29.424 29.472 31.152C28.224 32.848 26.4 34.032 24 34.704C25.792 35.184 27.232 36.416 28.32 38.4L33.6 48H23.904L18.048 37.248C17.664 36.576 17.168 36.096 16.56 35.808C15.984 35.52 15.312 35.376 14.544 35.376H11.904V48H3.072ZM11.904 29.136H17.76C21.248 29.136 22.992 27.76 22.992 25.008C22.992 22.288 21.248 20.928 17.76 20.928H11.904V29.136ZM52.0883 48.528C48.6643 48.528 45.6563 47.808 43.0643 46.368C40.5043 44.896 38.5043 42.848 37.0643 40.224C35.6243 37.6 34.9043 34.544 34.9043 31.056C34.9043 27.536 35.6083 24.48 37.0163 21.888C38.4563 19.264 40.4723 17.232 43.0643 15.792C45.6563 14.352 48.6643 13.632 52.0883 13.632C55.5123 13.632 58.5043 14.352 61.0643 15.792C63.6563 17.232 65.6723 19.264 67.1123 21.888C68.5523 24.48 69.2723 27.536 69.2723 31.056C69.2723 34.544 68.5523 37.6 67.1123 40.224C65.6723 42.848 63.6563 44.896 61.0643 46.368C58.5043 47.808 55.5123 48.528 52.0883 48.528ZM52.0883 41.136C54.5843 41.136 56.5363 40.256 57.9443 38.496C59.3843 36.704 60.1043 34.224 60.1043 31.056C60.1043 27.888 59.4003 25.424 57.9923 23.664C56.5843 21.904 54.6163 21.024 52.0883 21.024C49.5603 21.024 47.5923 21.904 46.1843 23.664C44.7763 25.424 44.0723 27.888 44.0723 31.056C44.0723 34.224 44.7763 36.704 46.1843 38.496C47.5923 40.256 49.5603 41.136 52.0883 41.136ZM73.527 48V14.16H89.847C93.495 14.16 96.311 14.96 98.295 16.56C100.311 18.128 101.319 20.24 101.319 22.896C101.319 24.656 100.871 26.192 99.975 27.504C99.111 28.816 97.895 29.792 96.327 30.432C98.215 31.008 99.671 31.984 100.695 33.36C101.719 34.704 102.231 36.384 102.231 38.4C102.231 41.376 101.159 43.728 99.015 45.456C96.903 47.152 94.007 48 90.327 48H73.527ZM81.975 27.6H88.263C89.863 27.6 91.031 27.312 91.767 26.736C92.535 26.16 92.919 25.28 92.919 24.096C92.919 22.912 92.535 22.048 91.767 21.504C91.031 20.928 89.863 20.64 88.263 20.64H81.975V27.6ZM81.975 41.52H89.127C90.759 41.52 91.943 41.216 92.679 40.608C93.447 39.968 93.831 39.024 93.831 37.776C93.831 36.528 93.447 35.6 92.679 34.992C91.943 34.384 90.759 34.08 89.127 34.08H81.975V41.52ZM106.27 48V14.16H122.59C126.238 14.16 129.054 14.96 131.038 16.56C133.054 18.128 134.062 20.24 134.062 22.896C134.062 24.656 133.614 26.192 132.718 27.504C131.854 28.816 130.638 29.792 129.07 30.432C130.958 31.008 132.414 31.984 133.438 33.36C134.462 34.704 134.974 36.384 134.974 38.4C134.974 41.376 133.902 43.728 131.758 45.456C129.646 47.152 126.75 48 123.07 48H106.27ZM114.718 27.6H121.006C122.606 27.6 123.774 27.312 124.51 26.736C125.278 26.16 125.662 25.28 125.662 24.096C125.662 22.912 125.278 22.048 124.51 21.504C123.774 20.928 122.606 20.64 121.006 20.64H114.718V27.6ZM114.718 41.52H121.87C123.502 41.52 124.686 41.216 125.422 40.608C126.19 39.968 126.574 39.024 126.574 37.776C126.574 36.528 126.19 35.6 125.422 34.992C124.686 34.384 123.502 34.08 121.87 34.08H114.718V41.52ZM146.466 48V33.024L133.458 14.16H143.586L151.026 25.152L158.466 14.16H168.306L155.298 33.024V48H146.466Z" fill="#F49AC2"/>
</svg>
