<?xml version="1.0" standalone="no"?>
<!DOCTYPE svg PUBLIC "-//W3C//DTD SVG 20010904//EN"
 "http://www.w3.org/TR/2001/REC-SVG-20010904/DTD/svg10.dtd">
<svg version="1.0" xmlns="http://www.w3.org/2000/svg"
 width="224.000000pt" height="224.000000pt" viewBox="0 0 224.000000 224.000000"
 preserveAspectRatio="xMidYMid meet">
<metadata>
Created by potrace 1.14, written by Peter Selinger 2001-2017
</metadata>
<g transform="translate(0.000000,224.000000) scale(0.100000,-0.100000)"
fill="#000000" stroke="none">
<path d="M3 1113 l0 -453 117 0 117 0 1 148 c0 81 1 156 1 168 1 18 7 21 54
19 28 -1 62 -7 74 -13 12 -7 43 -51 69 -99 26 -49 61 -110 76 -138 16 -27 31
-58 34 -67 6 -16 21 -18 135 -18 71 0 129 3 129 6 0 12 -132 248 -158 282 -13
19 -38 42 -54 52 l-29 17 38 16 c93 37 146 127 147 247 1 148 -82 248 -230
276 -20 4 -146 7 -279 8 l-242 1 0 -452z m443 262 c52 -9 84 -47 84 -97 0 -88
-37 -111 -182 -114 -87 -2 -108 1 -109 12 0 8 -1 52 -1 99 0 47 1 89 1 94 1 5
11 11 24 13 30 4 145 0 183 -7z"/>
<path d="M836 1560 c-10 -4 28 -121 148 -453 l161 -448 95 3 95 3 95 262 c52
145 97 263 100 263 3 0 14 -24 24 -52 10 -29 52 -149 93 -266 l76 -213 95 3
95 3 158 438 c88 242 159 444 159 450 0 9 -33 12 -111 10 -61 -1 -111 -3 -112
-5 -1 -1 -45 -130 -97 -285 -52 -156 -97 -277 -101 -270 -3 6 -45 129 -93 272
-48 143 -91 267 -96 275 -6 10 -29 13 -85 13 -42 -1 -79 -3 -81 -6 -3 -3 -34
-88 -70 -189 -36 -100 -68 -190 -72 -198 -5 -8 -19 -48 -32 -87 -14 -40 -27
-73 -30 -73 -3 0 -45 120 -94 268 -49 147 -92 271 -96 276 -9 9 -202 14 -224
6z"/>
</g>
</svg>
